<!-- Phosphor Icons "copy-duotone", MIT; colour adapted by Renjin. -->
<svg xmlns="http://www.w3.org/2000/svg" viewBox="0 0 256 256" fill="#C27AE8">
  <path opacity="0.2" d="M176,72V200a16,16,0,0,1-16,16H40a16,16,0,0,1-16-16V80A16,16,0,0,1,40,64H160A16,16,0,0,1,176,72Z"/>
  <path d="M216,32H88A24,24,0,0,0,64,56H40A24,24,0,0,0,16,80V200a24,24,0,0,0,24,24H160a24,24,0,0,0,24-24V176h32a24,24,0,0,0,24-24V56A24,24,0,0,0,216,32ZM168,200a8,8,0,0,1-8,8H40a8,8,0,0,1-8-8V80a8,8,0,0,1,8-8H160a8,8,0,0,1,8,8Zm56-48a8,8,0,0,1-8,8H184V80a24,24,0,0,0-24-24H80a8,8,0,0,1,8-8H216a8,8,0,0,1,8,8Z"/>
</svg>
